<svg xmlns="http://www.w3.org/2000/svg" xmlns:xlink="http://www.w3.org/1999/xlink" width="500" zoomAndPan="magnify" viewBox="0 0 375 374.999991" height="500" preserveAspectRatio="xMidYMid meet" version="1.0"><defs><clipPath id="e6d27faa53"><path d="M 114 112.5 L 262.5 112.5 L 262.5 261 L 114 261 Z M 114 112.5 " clip-rule="nonzero"/></clipPath></defs><rect x="-37.5" width="450" fill="#ffffff" y="-37.499999" height="449.999989" fill-opacity="1"/><path fill="#3e6606" d="M 188.410156 158.765625 C 181.6875 154.929688 174.410156 152.851562 166.765625 151.960938 C 164.183594 151.65625 158.507812 151.605469 158.507812 151.605469 C 158.507812 151.605469 158.3125 154.128906 158.28125 155.382812 C 158.183594 161.140625 158.734375 166.8125 160.328125 172.363281 C 161.761719 177.355469 163.988281 181.941406 167.546875 185.808594 C 169.1875 187.597656 171.097656 189.0625 173.042969 190.476562 C 175.683594 192.382812 178.441406 194.113281 181.371094 195.558594 C 183.832031 196.773438 186.363281 197.8125 189.0625 198.484375 C 189.0625 199.226562 188.925781 199.929688 188.804688 200.632812 C 188.132812 204.714844 187.28125 208.769531 186.414062 212.8125 C 186.054688 214.445312 187.144531 216.183594 188.777344 216.6875 C 190.289062 217.152344 192.007812 216.304688 192.660156 214.761719 C 192.78125 214.484375 192.847656 214.1875 192.890625 213.890625 C 193.660156 207.613281 193.988281 201.332031 193.285156 195.023438 C 192.679688 189.535156 191.355469 184.257812 188.746094 179.34375 C 187.371094 176.761719 185.492188 174.566406 183.476562 172.46875 C 180.953125 169.871094 175.101562 164.925781 175.101562 164.925781 C 175.101562 164.925781 183.316406 167.089844 191.949219 176.601562 C 196.8125 181.953125 198.207031 188.835938 199.007812 195.914062 C 199.613281 195.183594 200 194.441406 200.375 193.710938 C 202.488281 189.625 203.777344 185.316406 203.734375 180.675781 C 203.6875 175.378906 201.816406 170.757812 198.40625 166.746094 C 195.609375 163.441406 192.15625 160.902344 188.410156 158.765625 Z M 188.410156 158.765625 " fill-opacity="1" fill-rule="nonzero"/><path fill="#3e6606" d="M 237.066406 156.984375 C 235.652344 157.183594 234.328125 157.46875 233.015625 157.785156 C 228.21875 158.933594 223.570312 160.476562 219.300781 162.988281 C 214.800781 165.636719 211.488281 169.355469 209.363281 174.121094 C 207.503906 178.292969 206.542969 182.425781 207.007812 187.925781 C 214.929688 183.8125 221.476562 177.839844 227.230469 171.054688 C 223.75 180.726562 216.777344 187.132812 207.910156 191.980469 C 209.015625 192.324219 209.945312 192.523438 210.886719 192.660156 C 215.265625 193.304688 219.515625 192.917969 223.5625 191 C 227.0625 189.339844 229.742188 186.757812 231.828125 183.535156 C 234.386719 179.558594 235.78125 175.160156 236.554688 170.53125 C 237.296875 166.023438 237.117188 161.535156 237.066406 156.984375 Z M 237.066406 156.984375 " fill-opacity="1" fill-rule="nonzero"/><g clip-path="url(#e6d27faa53)"><path fill="#3e6606" d="M 196.269531 112.5 C 159.753906 112.5 130.042969 142.214844 130.042969 178.730469 C 130.042969 193.691406 135.035156 207.503906 143.429688 218.609375 L 119.007812 238.015625 C 113.023438 242.773438 112.519531 251.671875 117.917969 257.082031 C 123.316406 262.480469 132.226562 261.976562 136.984375 255.992188 L 156.390625 231.570312 C 167.496094 239.964844 181.308594 244.957031 196.261719 244.957031 C 232.777344 244.957031 262.488281 215.246094 262.488281 178.730469 C 262.488281 142.214844 232.785156 112.5 196.269531 112.5 Z M 196.269531 234.03125 C 165.777344 234.03125 140.96875 209.222656 140.96875 178.730469 C 140.96875 148.234375 165.777344 123.425781 196.269531 123.425781 C 226.765625 123.425781 251.574219 148.234375 251.574219 178.730469 C 251.574219 209.222656 226.765625 234.03125 196.269531 234.03125 Z M 196.269531 234.03125 " fill-opacity="1" fill-rule="nonzero"/></g></svg>