<svg xmlns="http://www.w3.org/2000/svg" width="43" height="42" viewBox="0 0 43 42" fill="none">
  <path d="M21.2021 20.2316C23.9815 20.2316 26.388 19.2347 28.3548 17.2679C30.321 15.3014 31.3182 12.8952 31.3182 10.1155C31.3182 7.33666 30.3213 4.9302 28.3545 2.96305C26.3876 0.99687 23.9812 0 21.2021 0C18.4223 0 16.0161 0.99687 14.0496 2.96337C12.0831 4.92988 11.0859 7.33634 11.0859 10.1155C11.0859 12.8952 12.0831 15.3017 14.0496 17.2682C16.0168 19.2344 18.4232 20.2316 21.2021 20.2316ZM15.7902 4.70365C17.2992 3.19473 19.0692 2.46125 21.2021 2.46125C23.3345 2.46125 25.1049 3.19473 26.6142 4.70365C28.1231 6.21289 28.8569 7.98329 28.8569 10.1155C28.8569 12.2483 28.1231 14.0183 26.6142 15.5276C25.1049 17.0368 23.3345 17.7703 21.2021 17.7703C19.0699 17.7703 17.2998 17.0365 15.7902 15.5276C14.281 14.0187 13.5472 12.2483 13.5472 10.1155C13.5472 7.98329 14.281 6.21289 15.7902 4.70365Z" fill="black"/>
  <path d="M38.9012 32.2973C38.8445 31.4789 38.7298 30.5862 38.5609 29.6435C38.3904 28.6937 38.1709 27.7959 37.9082 26.9752C37.6364 26.127 37.2676 25.2894 36.811 24.4867C36.3377 23.6536 35.7814 22.9282 35.1572 22.3312C34.5045 21.7067 33.7054 21.2045 32.7812 20.8383C31.8603 20.474 30.8397 20.2894 29.748 20.2894C29.3192 20.2894 28.9046 20.4653 28.1038 20.9866C27.611 21.308 27.0345 21.6797 26.3911 22.0909C25.8409 22.4414 25.0956 22.7699 24.175 23.0672C23.2768 23.3579 22.3649 23.5053 21.4644 23.5053C20.5647 23.5053 19.6527 23.3579 18.7539 23.0672C17.8342 22.7702 17.0886 22.4417 16.5394 22.0912C15.902 21.6839 15.3252 21.3122 14.825 20.9863C14.0249 20.465 13.6103 20.2891 13.1815 20.2891C12.0895 20.2891 11.0692 20.474 10.1486 20.8386C9.22511 21.2042 8.42563 21.7063 7.77226 22.3315C7.14806 22.9288 6.59178 23.6539 6.11882 24.4867C5.66284 25.2894 5.2937 26.1267 5.02197 26.9756C4.75954 27.7962 4.54004 28.6937 4.36957 29.6435C4.20038 30.5849 4.08598 31.478 4.02927 32.2983C3.97351 33.1003 3.94531 33.9351 3.94531 34.7784C3.94531 36.9709 4.64226 38.7457 6.0166 40.0547C7.37396 41.3464 9.16968 42.0013 11.3541 42.0013H31.5773C33.7611 42.0013 35.5568 41.3464 36.9145 40.0547C38.2892 38.7467 38.9861 36.9712 38.9861 34.7781C38.9858 33.9319 38.9573 33.0971 38.9012 32.2973ZM35.2175 38.2715C34.3206 39.1251 33.1299 39.5401 31.577 39.5401H11.3541C9.80093 39.5401 8.6102 39.1251 7.71362 38.2718C6.83403 37.4345 6.40657 36.2915 6.40657 34.7784C6.40657 33.9915 6.43253 33.2144 6.48444 32.4684C6.53506 31.7366 6.63857 30.9326 6.79205 30.0783C6.94362 29.2346 7.13652 28.4428 7.36595 27.726C7.58609 27.0387 7.88634 26.3581 8.25868 25.7025C8.61404 25.0776 9.02292 24.5415 9.47409 24.1096C9.8961 23.7055 10.428 23.3748 11.0548 23.1268C11.6345 22.8974 12.2859 22.7718 12.9931 22.7529C13.0793 22.7987 13.2328 22.8862 13.4814 23.0483C13.9874 23.378 14.5706 23.7542 15.2153 24.166C15.9421 24.6293 16.8784 25.0478 17.997 25.409C19.1406 25.7787 20.307 25.9665 21.4648 25.9665C22.6225 25.9665 23.7892 25.7787 24.9322 25.4093C26.0518 25.0475 26.9878 24.6293 27.7155 24.1654C28.3752 23.7437 28.9421 23.3784 29.4481 23.0483C29.6967 22.8865 29.8502 22.7987 29.9364 22.7529C30.6439 22.7718 31.2954 22.8974 31.8754 23.1268C32.5018 23.3748 33.0337 23.7058 33.4557 24.1096C33.9069 24.5412 34.3158 25.0773 34.6711 25.7028C35.0438 26.3581 35.3444 27.039 35.5642 27.7257C35.7939 28.4435 35.9872 29.2349 36.1384 30.078C36.2916 30.9339 36.3954 31.7382 36.446 32.4688V32.4694C36.4983 33.2125 36.5245 33.9892 36.5249 34.7784C36.5245 36.2919 36.0971 37.4345 35.2175 38.2715Z" fill="black"/>
</svg>